<?xml version="1.0" encoding="UTF-8"?>
<!DOCTYPE svg PUBLIC "-//W3C//DTD SVG 1.1//EN" "http://www.w3.org/Graphics/SVG/1.1/DTD/svg11.dtd">
<svg xmlns="http://www.w3.org/2000/svg" version="1.1" width="512px" height="512px" style="shape-rendering:geometricPrecision; text-rendering:geometricPrecision; image-rendering:optimizeQuality; fill-rule:evenodd; clip-rule:evenodd" xmlns:xlink="http://www.w3.org/1999/xlink">
<g><path style="opacity:0.948" fill="#000000" d="M 511.5,114.5 C 511.5,124.5 511.5,134.5 511.5,144.5C 503.42,192.116 476.753,224.616 431.5,242C 417.186,246.592 402.52,248.426 387.5,247.5C 387.667,313.168 387.5,378.834 387,444.5C 380.711,475.122 362.211,493.289 331.5,499C 239.833,499.667 148.167,499.667 56.5,499C 25.6646,493.662 6.66456,475.828 -0.5,445.5C -0.5,428.167 -0.5,410.833 -0.5,393.5C 0.854084,391.304 2.85408,389.804 5.5,389C 25.8306,388.5 46.1639,388.333 66.5,388.5C 66.5947,290.491 67.428,192.491 69,94.5C 69.4652,93.0692 70.2986,91.9025 71.5,91C 141.754,89.8396 212.087,89.0062 282.5,88.5C 306.537,34.4703 348.204,8.97031 407.5,12C 453.555,18.934 485.722,43.7673 504,86.5C 507.468,95.7155 509.968,105.049 511.5,114.5 Z M 380.5,29.5 C 431.486,26.5592 467.319,48.2258 488,94.5C 501.749,137.671 492.249,174.837 459.5,206C 417.557,237.506 374.891,238.506 331.5,209C 294.83,176.491 284.663,136.991 301,90.5C 316.983,56.338 343.483,36.0047 380.5,29.5 Z M 85.5,106.5 C 149.5,106.5 213.5,106.5 277.5,106.5C 273.068,130.537 275.734,153.704 285.5,176C 258.167,176.333 230.833,176.667 203.5,177C 196.833,182.333 196.833,187.667 203.5,193C 233.833,193.333 264.167,193.667 294.5,194C 312.644,221.622 337.977,238.789 370.5,245.5C 370.667,309.501 370.5,373.501 370,437.5C 365.323,464.508 349.323,479.508 322,482.5C 297.669,480.499 282.003,467.832 275,444.5C 273.756,427.538 273.089,410.538 273,393.5C 272.535,392.069 271.701,390.903 270.5,390C 208.225,388.511 145.892,388.011 83.5,388.5C 84.491,294.504 85.1576,200.504 85.5,106.5 Z M 153.5,176.5 C 162.249,177.673 165.083,182.34 162,190.5C 156.423,195.741 151.089,195.408 146,189.5C 144.123,182.56 146.623,178.227 153.5,176.5 Z M 150.5,249.5 C 162.515,248.734 165.849,253.568 160.5,264C 152.995,267.941 147.661,265.941 144.5,258C 145.161,254.179 147.161,251.346 150.5,249.5 Z M 150.5,321.5 C 154.839,320.846 158.673,321.846 162,324.5C 165.056,333.438 161.889,337.938 152.5,338C 142.989,333.391 142.322,327.891 150.5,321.5 Z M 16.5,406.5 C 96.5,406.5 176.5,406.5 256.5,406.5C 256.333,419.171 256.5,431.838 257,444.5C 259.304,459.618 266.138,472.118 277.5,482C 206.167,482.667 134.833,482.667 63.5,482C 37.8239,478.991 22.3239,464.825 17,439.5C 16.5002,428.505 16.3335,417.505 16.5,406.5 Z"/></g>
<g><path style="opacity:0.928" fill="#000000" d="M 390.5,51.5 C 394.31,51.379 397.477,52.7124 400,55.5C 401.29,59.7305 401.79,64.0638 401.5,68.5C 415.077,72.2428 423.91,80.9095 428,94.5C 428.879,99.2867 428.545,103.953 427,108.5C 423.205,111.803 419.038,112.303 414.5,110C 413.299,109.097 412.465,107.931 412,106.5C 410.43,88.8982 401.263,82.3982 384.5,87C 375.214,93.5942 373.047,102.094 378,112.5C 379.833,114.333 381.667,116.167 383.5,118C 391.794,120.091 400.128,122.091 408.5,124C 424.218,132.94 430.718,146.44 428,164.5C 424.415,178.418 415.748,187.418 402,191.5C 401.667,194.833 401.333,198.167 401,201.5C 398.412,207.811 393.912,209.644 387.5,207C 386.667,206.167 385.833,205.333 385,204.5C 383.621,199.964 383.121,195.297 383.5,190.5C 364.658,184.14 356.491,171.14 359,151.5C 363.963,146.288 368.963,146.288 374,151.5C 374.664,157.161 376.33,162.494 379,167.5C 387.917,176.348 397.084,176.681 406.5,168.5C 413.9,158.069 412.567,148.902 402.5,141C 395.999,139.013 389.332,137.68 382.5,137C 362.463,128.765 354.63,113.931 359,92.5C 362.941,80.7258 370.774,72.7258 382.5,68.5C 383.203,64.1296 384.036,59.7963 385,55.5C 386.5,53.5313 388.333,52.198 390.5,51.5 Z"/></g>
<g><path style="opacity:0.932" fill="#000000" d="M 147.5,159.5 C 167.314,157.333 178.647,166 181.5,185.5C 177.914,206.638 165.58,214.805 144.5,210C 128.896,202.197 124.062,190.03 130,173.5C 134.265,166.721 140.098,162.054 147.5,159.5 Z M 153.5,176.5 C 146.623,178.227 144.123,182.56 146,189.5C 151.089,195.408 156.423,195.741 162,190.5C 165.083,182.34 162.249,177.673 153.5,176.5 Z"/></g>
<g><path style="opacity:0.933" fill="#000000" d="M 148.5,231.5 C 170.347,230.517 181.18,240.85 181,262.5C 175.787,278.864 164.62,285.697 147.5,283C 132.05,278.187 125.55,267.687 128,251.5C 131.453,241.212 138.286,234.545 148.5,231.5 Z M 150.5,249.5 C 147.161,251.346 145.161,254.179 144.5,258C 147.661,265.941 152.995,267.941 160.5,264C 165.849,253.568 162.515,248.734 150.5,249.5 Z"/></g>
<g><path style="opacity:0.915" fill="#000000" d="M 205.5,248.5 C 243.835,248.333 282.168,248.5 320.5,249C 324.833,250.161 326.833,252.995 326.5,257.5C 326.819,262.044 324.819,264.877 320.5,266C 281.833,266.667 243.167,266.667 204.5,266C 199.008,262.858 197.508,258.358 200,252.5C 201.5,250.531 203.333,249.198 205.5,248.5 Z"/></g>
<g><path style="opacity:0.932" fill="#000000" d="M 148.5,303.5 C 170.348,302.517 181.181,312.851 181,334.5C 174.882,352.893 162.382,359.393 143.5,354C 127.19,344.611 123.357,331.444 132,314.5C 136.344,308.924 141.844,305.257 148.5,303.5 Z M 150.5,321.5 C 142.322,327.891 142.989,333.391 152.5,338C 161.889,337.938 165.056,333.438 162,324.5C 158.673,321.846 154.839,320.846 150.5,321.5 Z"/></g>
<g><path style="opacity:0.962" fill="#000000" d="M 204.5,321.5 C 243.501,321.333 282.501,321.5 321.5,322C 325.238,323.399 326.904,326.066 326.5,330C 326.961,333.545 325.628,336.212 322.5,338C 282.833,338.667 243.167,338.667 203.5,338C 196.829,332.152 197.162,326.652 204.5,321.5 Z"/></g>
</svg>
