<?xml version="1.0" encoding="UTF-8"?>
<!DOCTYPE svg PUBLIC "-//W3C//DTD SVG 1.1//EN" "http://www.w3.org/Graphics/SVG/1.1/DTD/svg11.dtd">
<svg xmlns="http://www.w3.org/2000/svg" version="1.1" width="512px" height="512px" style="shape-rendering:geometricPrecision; text-rendering:geometricPrecision; image-rendering:optimizeQuality; fill-rule:evenodd; clip-rule:evenodd" xmlns:xlink="http://www.w3.org/1999/xlink">
<g><path style="opacity:0.944" fill="#000000" d="M 511.5,66.5 C 511.5,175.167 511.5,283.833 511.5,392.5C 507.195,408.974 496.862,419.807 480.5,425C 448.216,426.471 415.883,426.971 383.5,426.5C 383.667,442.17 383.5,457.837 383,473.5C 379.692,477.327 375.526,478.494 370.5,477C 360.667,467.167 350.833,457.333 341,447.5C 331.5,457 322,466.5 312.5,476C 308.5,478 304.5,478 300.5,476C 299.54,474.581 298.707,473.081 298,471.5C 297.5,456.504 297.333,441.504 297.5,426.5C 209.833,426.667 122.166,426.5 34.5,426C 16.0883,421.753 4.42163,410.586 -0.5,392.5C -0.5,283.833 -0.5,175.167 -0.5,66.5C 4.73332,49.4361 16.0667,38.6028 33.5,34C 181.5,33.3333 329.5,33.3333 477.5,34C 494.933,38.6028 506.267,49.4361 511.5,66.5 Z M 36.5,51.5 C 182.5,51.3333 328.5,51.5 474.5,52C 483.573,54.7392 489.74,60.5725 493,69.5C 493.667,176.167 493.667,282.833 493,389.5C 490.058,399.443 483.558,405.609 473.5,408C 443.502,408.5 413.502,408.667 383.5,408.5C 383.333,395.829 383.5,383.162 384,370.5C 386.667,367.833 389.333,365.167 392,362.5C 401.5,372 411,381.5 420.5,391C 425.646,393.504 430.146,392.671 434,388.5C 435.317,347.559 435.983,306.559 436,265.5C 437.588,260.848 439.421,256.348 441.5,252C 460.64,248.558 467.807,237.391 463,218.5C 475.864,211.769 480.198,201.436 476,187.5C 474.561,184.397 472.727,181.564 470.5,179C 478.777,168.734 479.61,157.901 473,146.5C 469.667,143.833 466.333,141.167 463,138.5C 467.363,119.398 459.863,108.232 440.5,105C 437.225,85.3654 425.892,77.6987 406.5,82C 399.649,69.4912 389.316,65.1579 375.5,69C 372.368,70.6349 369.368,72.4682 366.5,74.5C 356.369,66.2666 345.702,65.4333 334.5,72C 331.593,75.1508 328.926,78.4841 326.5,82C 307.332,77.6636 296.165,85.1636 293,104.5C 273.513,107.502 266.013,118.502 270.5,137.5C 267.133,140.608 263.633,143.608 260,146.5C 255.784,152.881 254.451,159.881 256,167.5C 257.865,171.351 259.698,175.184 261.5,179C 259.568,182.361 257.734,185.861 256,189.5C 253.277,201.882 257.443,211.048 268.5,217C 269.293,218.085 269.96,219.252 270.5,220.5C 266.044,238.556 273.044,249.056 291.5,252C 293.406,256.444 295.24,260.944 297,265.5C 297.5,313.166 297.667,360.832 297.5,408.5C 210.833,408.667 124.166,408.5 37.5,408C 27.442,405.609 20.942,399.443 18,389.5C 17.3333,282.833 17.3333,176.167 18,69.5C 21.4414,60.5567 27.6081,54.5567 36.5,51.5 Z M 346.5,85.5 C 350.809,86.4852 354.809,88.3185 358.5,91C 363.822,92.908 369.155,92.908 374.5,91C 377.73,88.9274 381.063,87.094 384.5,85.5C 387.872,89.3774 391.539,93.2108 395.5,97C 402.45,100.979 409.617,101.479 417,98.5C 417.75,99.1258 418.584,99.6258 419.5,100C 420.679,105.867 422.846,111.367 426,116.5C 431.4,121.414 437.734,124.414 445,125.5C 445.5,126.5 446,127.5 446.5,128.5C 442.092,142.023 446.259,152.023 459,158.5C 459.658,162.546 458.325,165.879 455,168.5C 451.794,175.182 451.794,181.848 455,188.5C 456.77,191.042 458.27,193.709 459.5,196.5C 459.471,198.029 458.804,199.196 457.5,200C 449.269,204.283 444.936,211.116 444.5,220.5C 445.03,223.918 445.53,227.252 446,230.5C 445.167,231.333 444.333,232.167 443.5,233C 435.888,233.389 429.722,236.556 425,242.5C 422.785,247.723 420.618,252.889 418.5,258C 410.165,255.72 402.165,256.72 394.5,261C 391.098,265.011 387.598,268.844 384,272.5C 372.333,263.167 360.667,263.167 349,272.5C 345.502,269.366 342.335,265.866 339.5,262C 332.214,256.941 324.381,255.775 316,258.5C 315.127,258.265 314.293,257.931 313.5,257.5C 312.344,249.357 308.678,242.524 302.5,237C 297.583,234.748 292.583,232.915 287.5,231.5C 287.069,230.707 286.735,229.873 286.5,229C 290.654,216.315 286.987,206.649 275.5,200C 274.196,199.196 273.529,198.029 273.5,196.5C 275.53,192.959 277.363,189.292 279,185.5C 279.667,180.833 279.667,176.167 279,171.5C 277.266,167.861 275.432,164.361 273.5,161C 274.476,158.141 276.476,156.141 279.5,155C 287.861,147.058 290.361,137.558 287,126.5C 290.835,124.257 295.002,122.757 299.5,122C 305.07,119.057 308.903,114.557 311,108.5C 310.61,104.033 312.276,100.699 316,98.5C 329.956,103.106 340.122,98.7731 346.5,85.5 Z M 356.5,128.5 C 382.381,125.602 401.214,135.602 413,158.5C 422.574,189.122 413.074,211.622 384.5,226C 359.782,233.538 339.615,227.038 324,206.5C 309.836,179.641 314.336,156.474 337.5,137C 343.62,133.469 349.953,130.636 356.5,128.5 Z M 324.5,274.5 C 325.721,275.028 326.887,275.695 328,276.5C 331.957,284.727 338.457,289.394 347.5,290.5C 348.333,322.161 348.833,353.828 349,385.5C 351.103,391.469 355.27,393.636 361.5,392C 362.931,391.535 364.097,390.701 365,389.5C 365.667,408.167 365.667,426.833 365,445.5C 359.167,439.667 353.333,433.833 347.5,428C 343.698,425.172 339.698,424.839 335.5,427C 329,433.5 322.5,440 316,446.5C 315.5,389.834 315.333,333.168 315.5,276.5C 318.781,276.58 321.781,275.913 324.5,274.5 Z M 407.5,274.5 C 410.679,275.793 414.012,276.46 417.5,276.5C 417.667,304.835 417.5,333.169 417,361.5C 410.5,355 404,348.5 397.5,342C 393.833,340 390.167,340 386.5,342C 380,348.5 373.5,355 367,361.5C 366.167,335.494 366.333,309.494 367.5,283.5C 376.913,291.483 386.913,292.317 397.5,286C 400.979,282.148 404.312,278.314 407.5,274.5 Z"/></g>
<g><path style="opacity:0.944" fill="#000000" d="M 86.5,101.5 C 141.168,101.333 195.834,101.5 250.5,102C 254.084,103.664 255.751,106.497 255.5,110.5C 255.819,115.044 253.819,117.877 249.5,119C 195.833,119.333 142.167,119.667 88.5,120C 78.4334,122.4 71.9334,128.566 69,138.5C 68.3333,199.167 68.3333,259.833 69,320.5C 71.5792,331.411 78.4125,337.911 89.5,340C 146.167,340.333 202.833,340.667 259.5,341C 265.665,345.985 265.998,351.318 260.5,357C 202.916,358.658 145.249,358.992 87.5,358C 67.871,354.288 55.7043,342.788 51,323.5C 50.3333,261.167 50.3333,198.833 51,136.5C 55.4512,117.215 67.2845,105.548 86.5,101.5 Z"/></g>
<g><path style="opacity:0.934" fill="#000000" d="M 364.5,109.5 C 407.555,112.555 431.222,135.555 435.5,178.5C 433.372,214.278 415.039,236.778 380.5,246C 343.952,250.812 317.786,236.646 302,203.5C 290.981,164.861 302.814,135.694 337.5,116C 346.31,112.476 355.31,110.31 364.5,109.5 Z M 356.5,128.5 C 349.953,130.636 343.62,133.469 337.5,137C 314.336,156.474 309.836,179.641 324,206.5C 339.615,227.038 359.782,233.538 384.5,226C 413.074,211.622 422.574,189.122 413,158.5C 401.214,135.602 382.381,125.602 356.5,128.5 Z"/></g>
<g><path style="opacity:0.939" fill="#000000" d="M 99.5,152.5 C 141.168,152.333 182.835,152.5 224.5,153C 232.079,158.167 232.412,163.833 225.5,170C 183.167,170.667 140.833,170.667 98.5,170C 92.4025,166.372 91.2358,161.538 95,155.5C 96.4087,154.219 97.9087,153.219 99.5,152.5 Z"/></g>
<g><path style="opacity:0.94" fill="#000000" d="M 99.5,186.5 C 140.835,186.333 182.168,186.5 223.5,187C 230.572,189.88 232.239,194.713 228.5,201.5C 227.5,202.333 226.5,203.167 225.5,204C 182.833,204.667 140.167,204.667 97.5,204C 90.7905,197.303 91.4572,191.469 99.5,186.5 Z"/></g>
<g><path style="opacity:0.941" fill="#000000" d="M 100.5,220.5 C 141.168,220.333 181.835,220.5 222.5,221C 230.457,223.865 232.29,229.031 228,236.5C 227.25,237.126 226.416,237.626 225.5,238C 182.833,238.667 140.167,238.667 97.5,238C 92.242,233.902 91.4087,229.069 95,223.5C 96.8761,222.391 98.7095,221.391 100.5,220.5 Z"/></g>
<g><path style="opacity:0.932" fill="#000000" d="M 125.5,272.5 C 128.978,272.184 132.312,272.684 135.5,274C 138.459,278.751 141.293,283.584 144,288.5C 146.921,292.092 150.421,294.925 154.5,297C 156.112,297.72 157.612,297.554 159,296.5C 159.457,286.69 164.291,283.19 173.5,286C 175.743,288.488 177.743,291.154 179.5,294C 197.091,300.985 215.424,304.652 234.5,305C 239.833,310.333 239.833,315.667 234.5,321C 212.666,322.869 191.666,319.369 171.5,310.5C 156.847,318.867 144.014,316.534 133,303.5C 124.565,314.961 113.398,321.795 99.5,324C 93.5607,321.183 91.7273,316.683 94,310.5C 101.82,306.253 109.153,301.253 116,295.5C 119.677,290.463 121.344,284.796 121,278.5C 121.804,275.854 123.304,273.854 125.5,272.5 Z"/></g>
</svg>
