<?xml version="1.0" encoding="UTF-8"?>
<!DOCTYPE svg PUBLIC "-//W3C//DTD SVG 1.1//EN" "http://www.w3.org/Graphics/SVG/1.1/DTD/svg11.dtd">
<svg xmlns="http://www.w3.org/2000/svg" version="1.1" width="512px" height="512px" style="shape-rendering:geometricPrecision; text-rendering:geometricPrecision; image-rendering:optimizeQuality; fill-rule:evenodd; clip-rule:evenodd" xmlns:xlink="http://www.w3.org/1999/xlink">
<g><path style="opacity:0.969" fill="#000000" d="M 511.5,89.5 C 511.5,120.833 511.5,152.167 511.5,183.5C 508.363,234.273 487.697,276.44 449.5,310C 430.872,325.621 410.872,339.287 389.5,351C 385.5,351.667 381.5,351.667 377.5,351C 347.874,335.054 321.374,314.887 298,290.5C 272.118,259.701 258.118,224.034 256,183.5C 255.333,152.167 255.333,120.833 256,89.5C 256.883,86.8976 258.383,84.7309 260.5,83C 299.3,65.6192 338.3,48.6192 377.5,32C 381.5,31.3333 385.5,31.3333 389.5,32C 428.7,48.6192 467.7,65.6192 506.5,83C 508.55,84.9651 510.217,87.1318 511.5,89.5 Z M 382.5,65.5 C 414.64,78.7711 446.64,92.4378 478.5,106.5C 480.175,137.243 479.341,167.91 476,198.5C 470.27,233.797 453.77,262.964 426.5,286C 413.103,297.235 398.77,307.068 383.5,315.5C 360.415,303.014 339.915,287.014 322,267.5C 301.989,242.823 290.989,214.489 289,182.5C 287.456,157.172 287.289,131.839 288.5,106.5C 319.934,92.8093 351.268,79.1426 382.5,65.5 Z"/></g>
<g><path style="opacity:0.996" fill="#000000" d="M 511.5,329.5 C 511.5,371.5 511.5,413.5 511.5,455.5C 508.637,464.204 503.304,471.037 495.5,476C 492.911,477.197 490.244,478.197 487.5,479C 332.833,479.667 178.167,479.667 23.5,479C 17.7863,477.608 12.7863,474.941 8.5,471C 4.37379,466.4 1.37379,461.234 -0.5,455.5C -0.5,354.167 -0.5,252.833 -0.5,151.5C 2.36314,142.796 7.69647,135.963 15.5,131C 18.0891,129.803 20.7558,128.803 23.5,128C 86.8333,127.333 150.167,127.333 213.5,128C 220.487,130.807 223.82,135.973 223.5,143.5C 223.82,151.027 220.487,156.193 213.5,159C 152.834,159.5 92.1676,159.667 31.5,159.5C 31.5,180.833 31.5,202.167 31.5,223.5C 92.1676,223.333 152.834,223.5 213.5,224C 220.487,226.807 223.82,231.973 223.5,239.5C 223.82,247.027 220.487,252.193 213.5,255C 152.834,255.5 92.1676,255.667 31.5,255.5C 31.5,319.5 31.5,383.5 31.5,447.5C 180.833,447.5 330.167,447.5 479.5,447.5C 479.333,408.165 479.5,368.832 480,329.5C 482.807,322.513 487.973,319.18 495.5,319.5C 503.115,319.302 508.449,322.635 511.5,329.5 Z"/></g>
<g><path style="opacity:0.96" fill="#000000" d="M 425.5,127.5 C 444.778,126.61 451.278,135.276 445,153.5C 422.5,181.333 400,209.167 377.5,237C 370.833,240.333 364.167,240.333 357.5,237C 344.217,219.046 331.717,200.546 320,181.5C 318.633,162.206 327.133,155.706 345.5,162C 353.703,172.904 361.536,184.071 369,195.5C 385.241,175.348 401.241,155.015 417,134.5C 419.441,131.546 422.275,129.213 425.5,127.5 Z"/></g>
<g><path style="opacity:0.981" fill="#000000" d="M 73.5,319.5 C 98.8355,319.333 124.169,319.5 149.5,320C 158.482,324.473 161.649,331.64 159,341.5C 157.167,346 154,349.167 149.5,351C 124.167,351.667 98.8333,351.667 73.5,351C 66.513,348.193 63.1797,343.027 63.5,335.5C 63.3021,327.885 66.6354,322.551 73.5,319.5 Z"/></g>
</svg>
