<?xml version="1.0" encoding="UTF-8"?>
<!DOCTYPE svg PUBLIC "-//W3C//DTD SVG 1.1//EN" "http://www.w3.org/Graphics/SVG/1.1/DTD/svg11.dtd">
<svg xmlns="http://www.w3.org/2000/svg" version="1.1" width="512px" height="512px" style="shape-rendering:geometricPrecision; text-rendering:geometricPrecision; image-rendering:optimizeQuality; fill-rule:evenodd; clip-rule:evenodd" xmlns:xlink="http://www.w3.org/1999/xlink">
<g><path style="opacity:0.957" fill="#000000" d="M 304.5,21.5 C 318.504,21.3334 332.504,21.5001 346.5,22C 348.624,23.1217 350.457,24.6217 352,26.5C 353.135,34.0673 353.635,41.7339 353.5,49.5C 353.635,57.2661 353.135,64.9327 352,72.5C 344.959,79.1581 337.959,79.1581 331,72.5C 330.122,69.743 329.122,67.0763 328,64.5C 297.5,95 267,125.5 236.5,156C 232.024,158.877 227.357,159.21 222.5,157C 200.167,137.167 177.833,117.333 155.5,97.5C 119.684,129.482 84.0174,161.648 48.5,194C 37.5636,198.698 30.897,195.198 28.5,183.5C 28.466,180.567 29.2993,177.9 31,175.5C 67.1667,142.667 103.333,109.833 139.5,77C 143.217,73.6153 147.217,70.6153 151.5,68C 155.782,67.0349 159.782,67.7016 163.5,70C 184.833,89.3333 206.167,108.667 227.5,128C 228.167,128.667 228.833,128.667 229.5,128C 256.833,100.667 284.167,73.3333 311.5,46C 300.251,45.4139 295.751,39.5806 298,28.5C 299.694,25.6424 301.861,23.309 304.5,21.5 Z"/></g>
<g><path style="opacity:0.965" fill="#000000" d="M 287.5,133.5 C 306.836,133.333 326.17,133.5 345.5,134C 348.937,135.105 351.437,137.272 353,140.5C 353.5,182.832 353.667,225.165 353.5,267.5C 357.918,266.403 362.252,266.57 366.5,268C 369.333,269.5 371.5,271.667 373,274.5C 373.5,305.165 373.667,335.832 373.5,366.5C 404.168,366.333 434.835,366.5 465.5,367C 468.333,368.5 470.5,370.667 472,373.5C 472.312,425.84 448.479,462.34 400.5,483C 355.314,497.575 315.481,488.742 281,456.5C 263.559,437.946 253.392,415.946 250.5,390.5C 171.833,390.667 93.166,390.5 14.5,390C 7.45054,385.513 5.61721,379.346 9,371.5C 10.5429,369.622 12.3762,368.122 14.5,367C 19.1548,366.501 23.8215,366.334 28.5,366.5C 28.3333,327.832 28.5,289.165 29,250.5C 30.4741,246.359 33.3074,243.526 37.5,242C 56.1667,241.333 74.8333,241.333 93.5,242C 97.4987,242.668 100.332,244.835 102,248.5C 103.47,287.793 103.97,327.127 103.5,366.5C 106.5,366.5 109.5,366.5 112.5,366.5C 112.333,302.499 112.5,238.499 113,174.5C 114.5,171.667 116.667,169.5 119.5,168C 139.5,167.333 159.5,167.333 179.5,168C 182.728,169.563 184.895,172.063 186,175.5C 186.5,239.166 186.667,302.832 186.5,366.5C 189.5,366.5 192.5,366.5 195.5,366.5C 195.013,314.441 195.513,262.441 197,210.5C 198.668,206.835 201.501,204.668 205.5,204C 223.833,203.333 242.167,203.333 260.5,204C 265.667,205.167 268.833,208.333 270,213.5C 270.333,246.5 270.667,279.5 271,312.5C 273.295,309.203 275.962,306.203 279,303.5C 279.333,249.5 279.667,195.5 280,141.5C 281.387,137.678 283.887,135.011 287.5,133.5 Z M 304.5,158.5 C 312.5,158.5 320.5,158.5 328.5,158.5C 328.667,196.168 328.5,233.835 328,271.5C 319.955,274.402 312.288,278.069 305,282.5C 304.5,241.168 304.333,199.835 304.5,158.5 Z M 137.5,192.5 C 145.5,192.5 153.5,192.5 161.5,192.5C 161.5,250.5 161.5,308.5 161.5,366.5C 153.5,366.5 145.5,366.5 137.5,366.5C 137.5,308.5 137.5,250.5 137.5,192.5 Z M 220.5,228.5 C 228.833,228.5 237.167,228.5 245.5,228.5C 245.5,274.5 245.5,320.5 245.5,366.5C 237.167,366.5 228.833,366.5 220.5,366.5C 220.5,320.5 220.5,274.5 220.5,228.5 Z M 53.5,266.5 C 61.8333,266.5 70.1667,266.5 78.5,266.5C 78.5,299.833 78.5,333.167 78.5,366.5C 70.1667,366.5 61.8333,366.5 53.5,366.5C 53.5,333.167 53.5,299.833 53.5,266.5 Z M 347.5,292.5 C 348.332,321.997 348.832,351.664 349,381.5C 350.072,385.573 352.572,388.407 356.5,390C 386.498,390.5 416.498,390.667 446.5,390.5C 441.246,421.827 424.246,444.327 395.5,458C 351.382,473.182 315.549,462.015 288,424.5C 270.002,393.821 270.002,363.154 288,332.5C 302.377,311.061 322.211,297.727 347.5,292.5 Z"/></g>
<g><path style="opacity:0.956" fill="#000000" d="M 389.5,235.5 C 443.417,237.35 479.917,263.35 499,313.5C 503.02,326.228 504.353,339.228 503,352.5C 501.878,354.624 500.378,356.457 498.5,358C 461.585,359.654 424.585,359.987 387.5,359C 382.617,356.736 380.117,352.902 380,347.5C 379.333,314.167 379.333,280.833 380,247.5C 380.587,241.27 383.754,237.27 389.5,235.5 Z M 404.5,261.5 C 445.193,269.527 469.527,293.86 477.5,334.5C 453.167,334.5 428.833,334.5 404.5,334.5C 404.5,310.167 404.5,285.833 404.5,261.5 Z"/></g>
</svg>
