<?xml version="1.0" encoding="UTF-8"?>
<!DOCTYPE svg PUBLIC "-//W3C//DTD SVG 1.1//EN" "http://www.w3.org/Graphics/SVG/1.1/DTD/svg11.dtd">
<svg xmlns="http://www.w3.org/2000/svg" version="1.1" width="512px" height="512px" style="shape-rendering:geometricPrecision; text-rendering:geometricPrecision; image-rendering:optimizeQuality; fill-rule:evenodd; clip-rule:evenodd" xmlns:xlink="http://www.w3.org/1999/xlink">
<g><path style="opacity:0.914" fill="#000000" d="M 208.5,6.5 C 212.839,5.84614 216.673,6.84614 220,9.5C 221.576,18.0895 221.91,26.7562 221,35.5C 217.924,42.4135 213.09,43.9135 206.5,40C 205.874,39.2496 205.374,38.4162 205,37.5C 204.333,28.5 204.333,19.5 205,10.5C 206.376,9.29493 207.542,7.9616 208.5,6.5 Z"/></g>
<g><path style="opacity:0.904" fill="#000000" d="M 137.5,25.5 C 142.535,24.5021 146.702,25.8354 150,29.5C 153.906,36.1457 157.406,42.979 160.5,50C 157.123,59.3125 151.623,60.8125 144,54.5C 140.667,48.5 137.333,42.5 134,36.5C 132.882,32.0767 134.049,28.41 137.5,25.5 Z"/></g>
<g><path style="opacity:0.904" fill="#000000" d="M 279.5,25.5 C 289.33,23.8292 293.163,27.8292 291,37.5C 287.605,45.1412 283.105,51.9746 277.5,58C 268.333,59.5 264.5,55.6667 266,46.5C 269.609,38.7651 274.109,31.7651 279.5,25.5 Z"/></g>
<g><path style="opacity:0.942" fill="#000000" d="M 439.5,32.5 C 446.841,32.3337 454.174,32.5003 461.5,33C 476.2,36.3687 484.7,45.5353 487,60.5C 487.667,141.833 487.667,223.167 487,304.5C 477.227,322.545 467.06,340.379 456.5,358C 450.623,361.378 445.79,360.211 442,354.5C 432.634,337.813 423.3,321.147 414,304.5C 413.333,223.167 413.333,141.833 414,60.5C 416.486,45.5209 424.986,36.1876 439.5,32.5 Z M 442.5,49.5 C 447.844,49.334 453.177,49.5006 458.5,50C 464.74,51.9081 468.573,56.0747 470,62.5C 470.5,69.4921 470.666,76.4921 470.5,83.5C 457.167,83.5 443.833,83.5 430.5,83.5C 430.13,75.097 430.63,66.7637 432,58.5C 434.489,54.1675 437.989,51.1675 442.5,49.5 Z M 430.5,100.5 C 443.833,100.5 457.167,100.5 470.5,100.5C 470.5,165.167 470.5,229.833 470.5,294.5C 457.167,294.5 443.833,294.5 430.5,294.5C 430.5,229.833 430.5,165.167 430.5,100.5 Z M 437.5,312.5 C 445.99,311.343 454.657,311.176 463.5,312C 459.041,319.084 454.708,326.25 450.5,333.5C 445.891,326.604 441.558,319.604 437.5,312.5 Z"/></g>
<g><path style="opacity:0.94" fill="#000000" d="M 203.5,52.5 C 251.13,51.2144 282.963,72.8811 299,117.5C 304.554,137.977 303.22,157.977 295,177.5C 290,186.5 285,195.5 280,204.5C 275.372,215.052 272.372,226.052 271,237.5C 270.173,249.212 269.173,260.878 268,272.5C 265.694,277.306 262.194,280.973 257.5,283.5C 258.395,295.717 253.562,304.717 243,310.5C 244.63,325.109 238.463,334.275 224.5,338C 216.5,338.667 208.5,338.667 200.5,338C 191.114,336.281 185.281,330.781 183,321.5C 182.667,317.833 182.333,314.167 182,310.5C 171.837,304.511 167.17,295.511 168,283.5C 162.604,281.103 158.938,277.103 157,271.5C 155.917,259.183 154.917,246.85 154,234.5C 152.396,223.75 149.396,213.416 145,203.5C 140,194.5 135,185.5 130,176.5C 116.496,139.032 123.329,105.865 150.5,77C 165.711,63.3928 183.378,55.2261 203.5,52.5 Z M 205.5,69.5 C 243.009,68.6604 268.509,85.6604 282,120.5C 287.089,136.756 286.422,152.756 280,168.5C 270.171,184.159 262.504,200.825 257,218.5C 255.133,226.405 253.966,234.405 253.5,242.5C 247.5,242.5 241.5,242.5 235.5,242.5C 235.5,218.5 235.5,194.5 235.5,170.5C 261.269,172.592 273.436,160.925 272,135.5C 264.049,116.613 250.549,111.113 231.5,119C 219.811,127.551 215.477,139.051 218.5,153.5C 214.833,153.5 211.167,153.5 207.5,153.5C 209.664,139.922 205.664,128.755 195.5,120C 180.493,112.04 167.66,114.54 157,127.5C 149.508,141.695 151.675,154.195 163.5,165C 171.963,169.283 180.963,171.116 190.5,170.5C 190.5,194.5 190.5,218.5 190.5,242.5C 184.5,242.5 178.5,242.5 172.5,242.5C 171.07,228.446 167.903,214.779 163,201.5C 155.791,188.414 149.124,175.081 143,161.5C 135.146,121.71 149.312,92.8764 185.5,75C 192.118,72.5152 198.785,70.6818 205.5,69.5 Z M 176.5,132.5 C 183.231,131.448 187.731,134.114 190,140.5C 190.499,144.821 190.666,149.154 190.5,153.5C 185.434,153.66 180.434,153.16 175.5,152C 167.446,145.093 167.78,138.593 176.5,132.5 Z M 242.5,132.5 C 252.453,132.096 256.62,136.763 255,146.5C 253.833,149 252,150.833 249.5,152C 244.915,153.225 240.248,153.725 235.5,153.5C 235.334,148.821 235.501,144.155 236,139.5C 237.425,136.394 239.592,134.06 242.5,132.5 Z M 207.5,170.5 C 211.167,170.5 214.833,170.5 218.5,170.5C 218.5,194.5 218.5,218.5 218.5,242.5C 214.833,242.5 211.167,242.5 207.5,242.5C 207.5,218.5 207.5,194.5 207.5,170.5 Z M 172.5,259.5 C 199.167,259.5 225.833,259.5 252.5,259.5C 253.124,263.013 252.124,265.847 249.5,268C 224.833,268.667 200.167,268.667 175.5,268C 173.07,265.695 172.07,262.862 172.5,259.5 Z M 186.5,285.5 C 204.167,285.5 221.833,285.5 239.5,285.5C 239.846,288.602 239.179,291.435 237.5,294C 221.167,294.667 204.833,294.667 188.5,294C 186.686,291.519 186.02,288.685 186.5,285.5 Z M 199.5,311.5 C 208.167,311.5 216.833,311.5 225.5,311.5C 226.387,320.521 222.221,323.855 213,321.5C 209.05,321.593 205.216,321.093 201.5,320C 199.686,317.519 199.02,314.685 199.5,311.5 Z"/></g>
<g><path style="opacity:0.898" fill="#000000" d="M 87.5,76.5 C 90.2706,76.4207 92.9373,76.9207 95.5,78C 101.002,81.5855 106.669,84.9188 112.5,88C 117.143,94.1195 116.143,99.1195 109.5,103C 107.833,103.667 106.167,103.667 104.5,103C 97.8333,99.3333 91.1667,95.6667 84.5,92C 80.1902,85.7716 81.1902,80.6049 87.5,76.5 Z"/></g>
<g><path style="opacity:0.902" fill="#000000" d="M 332.5,76.5 C 341.916,77.0087 345.082,81.6754 342,90.5C 335.583,95.2943 328.75,99.461 321.5,103C 312.321,103.811 308.821,99.6447 311,90.5C 317.805,85.187 324.972,80.5204 332.5,76.5 Z"/></g>
<g><path style="opacity:0.93" fill="#000000" d="M 100.5,162.5 C 108.992,162.79 112.158,167.124 110,175.5C 99.6824,186.651 89.1824,197.651 78.5,208.5C 81.6667,215.5 84.8333,222.5 88,229.5C 89.3185,232.406 89.6518,235.406 89,238.5C 80.1955,253.244 73.5288,268.911 69,285.5C 60.1742,290.168 51.0075,294.168 41.5,297.5C 40.1667,309.833 40.1667,322.167 41.5,334.5C 51.0047,337.838 60.1713,341.838 69,346.5C 73.5373,363.124 80.204,378.79 89,393.5C 89.6667,395.833 89.6667,398.167 89,400.5C 84.769,408.606 81.4357,416.939 79,425.5C 87.3476,434.014 95.8476,442.348 104.5,450.5C 113.421,446.139 122.587,442.473 132,439.5C 141.832,443.83 151.666,448.33 161.5,453C 168.075,455.31 174.742,457.31 181.5,459C 183.049,460.214 184.215,461.714 185,463.5C 188.133,471.424 190.966,479.424 193.5,487.5C 206.184,487.832 218.851,487.499 231.5,486.5C 234.611,479.278 237.444,471.944 240,464.5C 240.972,462.695 242.139,461.028 243.5,459.5C 260.103,455.197 275.769,448.697 290.5,440C 292.833,439.333 295.167,439.333 297.5,440C 305.382,443.951 313.382,447.284 321.5,450C 329.667,441.833 337.833,433.667 346,425.5C 344.188,417.182 341.188,409.182 337,401.5C 336.333,398.5 336.333,395.5 337,392.5C 345.73,378.152 352.23,362.818 356.5,346.5C 357.5,345.667 358.5,344.833 359.5,344C 367.841,341.221 376.007,338.054 384,334.5C 384.833,322.153 384.666,309.82 383.5,297.5C 374.793,294.098 366.127,290.598 357.5,287C 353.948,278.346 350.781,269.513 348,260.5C 343.437,252.217 339.604,243.717 336.5,235C 339.041,225.579 342.707,216.579 347.5,208C 337,197.5 326.5,187 316,176.5C 313,169.166 315.334,164.499 323,162.5C 324.627,162.625 326.127,163.125 327.5,164C 340,176.5 352.5,189 365,201.5C 365.273,203.101 365.773,204.601 366.5,206C 362.79,215.424 358.79,224.758 354.5,234C 360.918,246.335 366.085,259.168 370,272.5C 379.366,276.849 388.866,281.016 398.5,285C 399.701,285.903 400.535,287.069 401,288.5C 401.667,306.833 401.667,325.167 401,343.5C 400.215,345.286 399.049,346.786 397.5,348C 388.596,351.371 379.762,354.871 371,358.5C 366.671,372.154 361.171,385.32 354.5,398C 359.076,407.477 363.076,417.144 366.5,427C 365.671,428.816 364.837,430.649 364,432.5C 351.771,445.398 338.938,457.564 325.5,469C 323.833,469.667 322.167,469.667 320.5,469C 311.716,465.441 303.049,461.608 294.5,457.5C 282.213,464.642 269.213,470.142 255.5,474C 251.809,482.737 248.309,491.57 245,500.5C 243.833,501.667 242.667,502.833 241.5,504C 232,504.167 222.5,504.333 213,504.5C 202.739,504.644 192.572,504.144 182.5,503C 178.025,493.755 174.025,484.255 170.5,474.5C 156.792,470.097 143.625,464.43 131,457.5C 122.601,461.523 114.101,465.357 105.5,469C 103.5,469.667 101.5,469.667 99.5,469C 85.6667,456.5 72.5,443.333 60,429.5C 59.3333,427.167 59.3333,424.833 60,422.5C 63.7049,414.258 67.5382,406.091 71.5,398C 64.5669,385.364 58.9002,372.197 54.5,358.5C 47.2777,355.389 39.9444,352.556 32.5,350C 29.7513,348.877 27.2513,347.377 25,345.5C 23.8712,335.737 23.3712,325.903 23.5,316C 23.6667,307.167 23.8333,298.333 24,289.5C 24.6667,288.167 25.3333,286.833 26,285.5C 35.5858,281.305 45.2525,277.305 55,273.5C 58.9403,259.678 64.4403,246.512 71.5,234C 67.5382,225.909 63.7049,217.742 60,209.5C 59.2099,206.366 59.5432,203.366 61,200.5C 73.7827,187.213 86.9494,174.546 100.5,162.5 Z M 207.5,170.5 C 207.5,194.5 207.5,218.5 207.5,242.5C 211.167,242.5 214.833,242.5 218.5,242.5C 218.5,218.5 218.5,194.5 218.5,170.5C 214.833,170.5 211.167,170.5 207.5,170.5 Z M 172.5,259.5 C 172.07,262.862 173.07,265.695 175.5,268C 200.167,268.667 224.833,268.667 249.5,268C 252.124,265.847 253.124,263.013 252.5,259.5C 225.833,259.5 199.167,259.5 172.5,259.5 Z M 186.5,285.5 C 186.02,288.685 186.686,291.519 188.5,294C 204.833,294.667 221.167,294.667 237.5,294C 239.179,291.435 239.846,288.602 239.5,285.5C 221.833,285.5 204.167,285.5 186.5,285.5 Z M 199.5,311.5 C 199.02,314.685 199.686,317.519 201.5,320C 205.216,321.093 209.05,321.593 213,321.5C 222.221,323.855 226.387,320.521 225.5,311.5C 216.833,311.5 208.167,311.5 199.5,311.5 Z"/></g>
<g><path style="opacity:0.93" fill="#000000" d="M 129.5,233.5 C 140.123,232.947 143.623,237.614 140,247.5C 111.224,280.68 105.224,317.68 122,358.5C 141.025,394.993 171.191,414.326 212.5,416.5C 254.628,414.538 285.128,394.871 304,357.5C 318.145,322.327 314.811,288.994 294,257.5C 291.705,254.203 289.038,251.203 286,248.5C 282.593,243.87 282.759,239.37 286.5,235C 290.167,233 293.833,233 297.5,235C 327.467,268.373 336.633,306.873 325,350.5C 307.234,399.597 272.401,427.097 220.5,433C 169.109,434.233 131.276,412.4 107,367.5C 88.6766,325.103 92.3432,284.769 118,246.5C 121.699,241.973 125.532,237.639 129.5,233.5 Z M 172.5,259.5 C 172.07,262.862 173.07,265.695 175.5,268C 200.167,268.667 224.833,268.667 249.5,268C 252.124,265.847 253.124,263.013 252.5,259.5C 225.833,259.5 199.167,259.5 172.5,259.5 Z M 186.5,285.5 C 186.02,288.685 186.686,291.519 188.5,294C 204.833,294.667 221.167,294.667 237.5,294C 239.179,291.435 239.846,288.602 239.5,285.5C 221.833,285.5 204.167,285.5 186.5,285.5 Z M 199.5,311.5 C 199.02,314.685 199.686,317.519 201.5,320C 205.216,321.093 209.05,321.593 213,321.5C 222.221,323.855 226.387,320.521 225.5,311.5C 216.833,311.5 208.167,311.5 199.5,311.5 Z"/></g>
</svg>
