<?xml version="1.0" encoding="UTF-8"?>
<!DOCTYPE svg PUBLIC "-//W3C//DTD SVG 1.1//EN" "http://www.w3.org/Graphics/SVG/1.1/DTD/svg11.dtd">
<svg xmlns="http://www.w3.org/2000/svg" version="1.1" width="512px" height="512px" style="shape-rendering:geometricPrecision; text-rendering:geometricPrecision; image-rendering:optimizeQuality; fill-rule:evenodd; clip-rule:evenodd" xmlns:xlink="http://www.w3.org/1999/xlink">
<g><path style="opacity:0.932" fill="#000000" d="M 511.5,268.5 C 511.5,272.167 511.5,275.833 511.5,279.5C 504.767,305.287 490.767,326.287 469.5,342.5C 462.738,385.091 439.071,413.591 398.5,428C 390.623,430.209 382.623,431.709 374.5,432.5C 369.772,469.401 349.772,493.901 314.5,506C 309.239,507.385 303.906,508.385 298.5,509C 273.833,509.667 249.167,509.667 224.5,509C 217.21,507.712 212.377,503.545 210,496.5C 209.833,480.823 209.333,465.156 208.5,449.5C 186.509,444.229 166.009,435.563 147,423.5C 136.5,434 126,444.5 115.5,455C 108.973,457.877 102.307,458.21 95.5,456C 81.3621,442.863 67.5288,429.363 54,415.5C 49.3333,407.833 49.3333,400.167 54,392.5C 64.3476,382.319 74.5143,371.986 84.5,361.5C 72.6448,342.271 64.3115,321.604 59.5,299.5C 44.4963,299.667 29.4963,299.5 14.5,299C 7.19081,297.518 2.19081,293.351 -0.5,286.5C -0.5,265.833 -0.5,245.167 -0.5,224.5C 2.19081,217.649 7.19081,213.482 14.5,212C 29.4963,211.5 44.4963,211.333 59.5,211.5C 64.3101,189.401 72.6435,168.734 84.5,149.5C 74.5143,139.014 64.3476,128.681 54,118.5C 49.3333,110.833 49.3333,103.167 54,95.5C 67.1667,82.3333 80.3333,69.1667 93.5,56C 100.807,52.714 108.14,52.714 115.5,56C 126,66.5 136.5,77 147,87.5C 166.009,75.4372 186.509,66.7706 208.5,61.5C 209.333,45.844 209.833,30.1773 210,14.5C 212.377,7.4545 217.21,3.28784 224.5,2C 244.5,1.33333 264.5,1.33333 284.5,2C 289.224,4.43529 290.724,8.26863 289,13.5C 287.833,14.6667 286.667,15.8333 285.5,17C 277.173,17.4997 268.84,17.6664 260.5,17.5C 260.5,176.167 260.5,334.833 260.5,493.5C 274.878,493.891 289.211,493.391 303.5,492C 333.581,484.085 351.915,464.918 358.5,434.5C 358.392,433.558 358.059,432.725 357.5,432C 347.051,430.025 337.884,425.525 330,418.5C 327.71,409.211 331.21,405.378 340.5,407C 352.245,415.085 365.245,418.085 379.5,416C 423.497,406.337 448.33,379.17 454,334.5C 466.42,325.415 476.753,314.415 485,301.5C 490.783,291.151 494.783,280.151 497,268.5C 501.832,264.537 506.666,264.537 511.5,268.5 Z M 227.5,17.5 C 233.167,17.5 238.833,17.5 244.5,17.5C 244.5,49.5 244.5,81.5 244.5,113.5C 185.271,119.179 143.771,149.179 120,203.5C 101.223,258.607 110.556,308.274 148,352.5C 174.354,379.758 206.521,394.758 244.5,397.5C 244.5,429.5 244.5,461.5 244.5,493.5C 238.824,493.666 233.157,493.499 227.5,493C 227,492.5 226.5,492 226,491.5C 225.667,474.833 225.333,458.167 225,441.5C 224.654,439.152 223.487,437.319 221.5,436C 195.479,430.665 171.479,420.665 149.5,406C 146.366,405.21 143.366,405.543 140.5,407C 129.167,418.333 117.833,429.667 106.5,441C 105.167,441.667 103.833,441.667 102.5,441C 90.1245,428.959 78.1245,416.626 66.5,404C 77.6244,391.875 89.1244,380.041 101,368.5C 102.112,366.61 102.946,364.61 103.5,362.5C 97.6839,351.537 91.8506,340.537 86,329.5C 80.2585,315.942 75.9252,301.942 73,287.5C 71.8333,286.333 70.6667,285.167 69.5,284C 52.1667,283.667 34.8333,283.333 17.5,283C 17,282.5 16.5,282 16,281.5C 15.3333,264.167 15.3333,246.833 16,229.5C 16.5,229 17,228.5 17.5,228C 34.8333,227.667 52.1667,227.333 69.5,227C 70.6667,225.833 71.8333,224.667 73,223.5C 78.3245,197.192 88.3245,172.859 103,150.5C 103.552,147.581 102.885,144.914 101,142.5C 89.6667,131.167 78.3333,119.833 67,108.5C 66.3333,107.5 66.3333,106.5 67,105.5C 79.0731,92.9243 91.5731,80.9243 104.5,69.5C 116.927,80.424 128.927,91.924 140.5,104C 144.167,106 147.833,106 151.5,104C 172.898,89.8618 196.231,80.1951 221.5,75C 223.487,73.6811 224.654,71.8477 225,69.5C 225.333,52.8333 225.667,36.1667 226,19.5C 226.717,18.9558 227.217,18.2891 227.5,17.5 Z M 237.5,129.5 C 239.833,129.5 242.167,129.5 244.5,129.5C 244.816,137.752 244.482,145.919 243.5,154C 219.33,168.253 194.997,182.253 170.5,196C 165.692,199.789 162.525,204.622 161,210.5C 160.333,240.5 160.333,270.5 161,300.5C 162.525,306.378 165.692,311.211 170.5,315C 194.997,328.747 219.33,342.747 243.5,357C 244.482,365.081 244.816,373.248 244.5,381.5C 191.158,375.64 154.324,347.974 134,298.5C 117.218,242.776 130.385,195.609 173.5,157C 192.584,142.476 213.917,133.31 237.5,129.5 Z M 243.5,172.5 C 244.824,183.674 244.824,195.007 243.5,206.5C 212.637,215.881 199.804,236.548 205,268.5C 211.24,287.574 224.073,299.574 243.5,304.5C 244.666,315.819 244.832,327.152 244,338.5C 221.835,325.752 199.835,312.752 178,299.5C 176.849,284.923 176.349,270.256 176.5,255.5C 176.349,240.744 176.849,226.077 178,211.5C 199.814,198.348 221.647,185.348 243.5,172.5 Z M 241.5,223.5 C 242.5,223.5 243.5,223.5 244.5,223.5C 244.5,244.833 244.5,266.167 244.5,287.5C 224.472,280.452 216.638,266.452 221,245.5C 224.935,235.4 231.769,228.067 241.5,223.5 Z"/></g>
<g><path style="opacity:0.926" fill="#000000" d="M 511.5,231.5 C 511.5,235.167 511.5,238.833 511.5,242.5C 506.666,246.463 501.832,246.463 497,242.5C 492.557,217.265 480.224,196.931 460,181.5C 453.656,189.01 446.823,196.01 439.5,202.5C 443.936,210.855 445.436,219.522 444,228.5C 439.333,233.833 434.667,233.833 430,228.5C 429.464,217.875 425.631,208.709 418.5,201C 415.498,198.497 412.165,196.497 408.5,195C 402.795,193.64 397.295,191.806 392,189.5C 389.413,184.587 390.247,180.42 394.5,177C 407.662,176.246 419.329,180.079 429.5,188.5C 455.113,169.068 462.613,144.068 452,113.5C 439.973,87.9908 419.806,74.6575 391.5,73.5C 383.164,73.8061 374.997,75.1394 367,77.5C 359.175,76.1845 356.841,71.8512 360,64.5C 361.8,62.683 363.966,61.5163 366.5,61C 372.131,59.6405 377.798,58.4738 383.5,57.5C 366.734,32.9497 343.401,19.4497 313.5,17C 307.337,12.8161 307.004,8.14941 312.5,3C 330.673,2.12721 347.673,6.46054 363.5,16C 379.93,26.429 392.93,40.0957 402.5,57C 451.604,68.7832 474.77,99.9498 472,150.5C 471.122,156.012 469.622,161.345 467.5,166.5C 489.898,182.971 504.565,204.638 511.5,231.5 Z"/></g>
<g><path style="opacity:0.923" fill="#000000" d="M 379.5,264.5 C 386.237,263.195 390.237,265.862 391.5,272.5C 388.667,278.167 385.833,283.833 383,289.5C 380.033,302.936 383.366,314.602 393,324.5C 394.241,334.766 390.075,338.1 380.5,334.5C 374.447,329.06 370.447,322.393 368.5,314.5C 347.735,324.441 326.068,326.941 303.5,322C 296.815,320.244 290.982,317.077 286,312.5C 283.766,305.75 286.099,301.75 293,300.5C 312.753,310.171 332.92,311.004 353.5,303C 357.873,301.287 361.707,298.787 365,295.5C 366.65,283.54 371.483,273.207 379.5,264.5 Z"/></g>
</svg>
