<?xml version="1.0" encoding="UTF-8"?>
<!DOCTYPE svg PUBLIC "-//W3C//DTD SVG 1.1//EN" "http://www.w3.org/Graphics/SVG/1.1/DTD/svg11.dtd">
<svg xmlns="http://www.w3.org/2000/svg" version="1.1" width="512px" height="512px" style="shape-rendering:geometricPrecision; text-rendering:geometricPrecision; image-rendering:optimizeQuality; fill-rule:evenodd; clip-rule:evenodd" xmlns:xlink="http://www.w3.org/1999/xlink">
<g><path style="opacity:0.947" fill="#000000" d="M 95.5,15.5 C 202.167,15.3333 308.834,15.5 415.5,16C 434.102,20.9351 445.602,32.7684 450,51.5C 450.667,197.833 450.667,344.167 450,490.5C 446.726,495.738 442.226,496.904 436.5,494C 426.271,484.601 415.604,475.768 404.5,467.5C 394.02,476.146 383.686,484.979 373.5,494C 369.5,496 365.5,496 361.5,494C 351.314,484.979 340.98,476.146 330.5,467.5C 319.131,476.19 308.131,485.357 297.5,495C 293.142,496.075 289.142,495.408 285.5,493C 275.647,484.312 265.647,475.812 255.5,467.5C 244.646,476.855 233.646,486.022 222.5,495C 219.5,495.667 216.5,495.667 213.5,495C 202.869,485.357 191.869,476.19 180.5,467.5C 169.646,476.855 158.646,486.022 147.5,495C 144.036,495.817 140.702,495.483 137.5,494C 127.314,484.979 116.98,476.146 106.5,467.5C 95.396,475.768 84.7293,484.601 74.5,494C 69.8857,496.402 65.719,495.902 62,492.5C 60.3366,345.58 60.0032,198.58 61,51.5C 65.5823,32.7532 77.0823,20.7532 95.5,15.5 Z M 104.5,31.5 C 205.167,31.3333 305.834,31.5 406.5,32C 420.048,33.3571 428.881,40.5238 433,53.5C 433.667,191.833 433.667,330.167 433,468.5C 425.593,461.882 418.093,455.382 410.5,449C 406.833,447 403.167,447 399.5,449C 389.018,458.072 378.351,466.905 367.5,475.5C 356.649,466.905 345.982,458.072 335.5,449C 331.833,447 328.167,447 324.5,449C 314.282,458.223 303.782,467.056 293,475.5C 282.552,467.39 272.386,458.89 262.5,450C 257.833,446.667 253.167,446.667 248.5,450C 238.614,458.89 228.448,467.39 218,475.5C 207.218,467.056 196.718,458.223 186.5,449C 182.833,447 179.167,447 175.5,449C 165.018,458.072 154.351,466.905 143.5,475.5C 132.396,467.232 121.729,458.399 111.5,449C 107.833,447 104.167,447 100.5,449C 92.9066,455.382 85.4066,461.882 78,468.5C 77.3333,330.167 77.3333,191.833 78,53.5C 82.348,40.5984 91.1814,33.265 104.5,31.5 Z M 251.5,70.5 C 286.766,71.5413 309.6,88.8747 320,122.5C 325.189,159.968 310.356,185.801 275.5,200C 236.626,208.606 209.126,194.773 193,158.5C 184.076,123.593 194.909,96.7595 225.5,78C 233.933,74.2296 242.6,71.7296 251.5,70.5 Z M 117.5,260.5 C 125.833,260.5 134.167,260.5 142.5,260.5C 142.5,268.833 142.5,277.167 142.5,285.5C 134.167,285.5 125.833,285.5 117.5,285.5C 117.5,277.167 117.5,268.833 117.5,260.5 Z M 117.5,354.5 C 125.833,354.5 134.167,354.5 142.5,354.5C 142.5,362.833 142.5,371.167 142.5,379.5C 134.167,379.5 125.833,379.5 117.5,379.5C 117.5,371.167 117.5,362.833 117.5,354.5 Z"/></g>
<g><path style="opacity:0.929" fill="#000000" d="M 250.5,53.5 C 287.039,53.5944 313.872,69.5944 331,101.5C 346.894,143.459 337.394,178.293 302.5,206C 271.167,225.333 239.833,225.333 208.5,206C 175.409,180.049 165.242,146.882 178,106.5C 192.171,75.162 216.338,57.4953 250.5,53.5 Z M 251.5,70.5 C 242.6,71.7296 233.933,74.2296 225.5,78C 194.909,96.7595 184.076,123.593 193,158.5C 209.126,194.773 236.626,208.606 275.5,200C 310.356,185.801 325.189,159.968 320,122.5C 309.6,88.8747 286.766,71.5413 251.5,70.5 Z"/></g>
<g><path style="opacity:0.925" fill="#000000" d="M 252.5,82.5 C 256.803,81.7962 260.303,83.1295 263,86.5C 264.225,91.0853 264.725,95.752 264.5,100.5C 275.483,98.6447 279.649,102.978 277,113.5C 275.681,115.487 273.848,116.654 271.5,117C 264.5,117.333 257.5,117.667 250.5,118C 249.383,121.073 249.216,124.24 250,127.5C 254.749,128.305 259.582,128.805 264.5,129C 272.125,131.401 276.625,136.568 278,144.5C 280.001,154.193 277.834,162.693 271.5,170C 269.254,171.039 267.087,172.206 265,173.5C 264.727,178.229 264.061,182.896 263,187.5C 258,192.833 253,192.833 248,187.5C 247.501,182.845 247.334,178.179 247.5,173.5C 236.027,175.859 231.527,171.526 234,160.5C 235.319,158.513 237.152,157.346 239.5,157C 246.5,156.667 253.5,156.333 260.5,156C 261.617,152.927 261.784,149.76 261,146.5C 256.251,145.695 251.418,145.195 246.5,145C 236.253,141.386 231.586,134.053 232.5,123C 231.682,112.002 236.349,104.502 246.5,100.5C 247.328,95.8685 247.828,91.2018 248,86.5C 249.397,84.9297 250.897,83.5964 252.5,82.5 Z"/></g>
<g><path style="opacity:0.938" fill="#000000" d="M 107.5,243.5 C 122.17,243.333 136.837,243.5 151.5,244C 154.276,244.066 156.442,245.232 158,247.5C 159.622,263.766 159.955,280.1 159,296.5C 158.293,298.081 157.46,299.581 156.5,301C 139.591,302.638 122.591,302.971 105.5,302C 104.069,301.535 102.903,300.701 102,299.5C 100.363,282.925 100.03,266.258 101,249.5C 102.436,246.558 104.603,244.558 107.5,243.5 Z M 117.5,260.5 C 117.5,268.833 117.5,277.167 117.5,285.5C 125.833,285.5 134.167,285.5 142.5,285.5C 142.5,277.167 142.5,268.833 142.5,260.5C 134.167,260.5 125.833,260.5 117.5,260.5 Z"/></g>
<g><path style="opacity:0.935" fill="#000000" d="M 185.5,249.5 C 250.168,249.333 314.834,249.5 379.5,250C 387.074,254.874 387.408,260.208 380.5,266C 315.167,266.667 249.833,266.667 184.5,266C 179.391,262.634 178.224,258.134 181,252.5C 182.409,251.219 183.909,250.219 185.5,249.5 Z"/></g>
<g><path style="opacity:0.988" fill="#000000" d="M 183.5,280.5 C 222.501,280.333 261.501,280.5 300.5,281C 305.833,286 305.833,291 300.5,296C 261.5,296.667 222.5,296.667 183.5,296C 178.221,290.836 178.221,285.669 183.5,280.5 Z"/></g>
<g><path style="opacity:0.938" fill="#000000" d="M 107.5,337.5 C 122.504,337.333 137.504,337.5 152.5,338C 154.848,338.346 156.681,339.513 158,341.5C 159.622,357.766 159.955,374.1 159,390.5C 158.226,392.939 156.726,394.773 154.5,396C 138.167,396.667 121.833,396.667 105.5,396C 104.069,395.535 102.903,394.701 102,393.5C 100.362,376.591 100.029,359.591 101,342.5C 102.805,340.174 104.972,338.508 107.5,337.5 Z M 117.5,354.5 C 117.5,362.833 117.5,371.167 117.5,379.5C 125.833,379.5 134.167,379.5 142.5,379.5C 142.5,371.167 142.5,362.833 142.5,354.5C 134.167,354.5 125.833,354.5 117.5,354.5 Z"/></g>
<g><path style="opacity:0.935" fill="#000000" d="M 184.5,343.5 C 249.501,343.333 314.501,343.5 379.5,344C 385.549,347.069 386.882,351.569 383.5,357.5C 382.335,358.584 381.002,359.417 379.5,360C 314.5,360.667 249.5,360.667 184.5,360C 179.391,356.634 178.224,352.134 181,346.5C 182.145,345.364 183.312,344.364 184.5,343.5 Z"/></g>
<g><path style="opacity:0.988" fill="#000000" d="M 183.5,374.5 C 222.501,374.333 261.501,374.5 300.5,375C 305.833,380 305.833,385 300.5,390C 261.5,390.667 222.5,390.667 183.5,390C 178.221,384.836 178.221,379.669 183.5,374.5 Z"/></g>
</svg>
