<?xml version="1.0" encoding="UTF-8"?>
<!DOCTYPE svg PUBLIC "-//W3C//DTD SVG 1.1//EN" "http://www.w3.org/Graphics/SVG/1.1/DTD/svg11.dtd">
<svg xmlns="http://www.w3.org/2000/svg" version="1.1" width="512px" height="512px" style="shape-rendering:geometricPrecision; text-rendering:geometricPrecision; image-rendering:optimizeQuality; fill-rule:evenodd; clip-rule:evenodd" xmlns:xlink="http://www.w3.org/1999/xlink">
<g><path style="opacity:0.986" fill="#000000" d="M 57.5,95.5 C 189.5,95.3333 321.5,95.5 453.5,96C 475.348,100.318 489.181,113.152 495,134.5C 495.667,215.167 495.667,295.833 495,376.5C 489.181,397.848 475.348,410.682 453.5,415C 321.5,415.667 189.5,415.667 57.5,415C 35.6525,410.682 21.8192,397.848 16,376.5C 15.3333,295.833 15.3333,215.167 16,134.5C 19.6194,120.217 27.7861,109.384 40.5,102C 46.1596,99.5073 51.8263,97.3407 57.5,95.5 Z M 68.5,127.5 C 193.167,127.333 317.834,127.5 442.5,128C 449.29,128.371 455.123,130.871 460,135.5C 461.562,137.957 462.562,140.624 463,143.5C 463.667,218.167 463.667,292.833 463,367.5C 460.823,375.512 455.656,380.179 447.5,381.5C 445.139,328.149 420.139,289.483 372.5,265.5C 393.462,239.963 397.296,211.963 384,181.5C 365.317,150.813 338.15,138.646 302.5,145C 272.597,153.569 254.431,173.069 248,203.5C 244.597,227.117 250.764,247.784 266.5,265.5C 218.249,289.991 193.249,329.324 191.5,383.5C 150.499,383.667 109.499,383.5 68.5,383C 59.5891,383.049 53.0891,379.216 49,371.5C 47.3454,295.544 47.0121,219.544 48,143.5C 49.3858,135.78 53.8858,130.947 61.5,129C 64.0356,128.814 66.369,128.314 68.5,127.5 Z M 310.5,176.5 C 334.526,173.753 350.36,183.753 358,206.5C 361.234,230.544 351.401,246.377 328.5,254C 304.456,257.234 288.623,247.401 281,224.5C 277.955,200.414 287.788,184.414 310.5,176.5 Z M 318.5,287.5 C 368.097,291.038 399.597,316.705 413,364.5C 414.188,370.778 414.688,377.112 414.5,383.5C 351.167,383.5 287.833,383.5 224.5,383.5C 227.425,334.162 252.759,302.995 300.5,290C 306.634,289.088 312.634,288.255 318.5,287.5 Z"/></g>
<g><path style="opacity:0.971" fill="#000000" d="M 73.5,143.5 C 88.1705,143.333 102.837,143.5 117.5,144C 126.482,148.473 129.649,155.64 127,165.5C 125.167,170 122,173.167 117.5,175C 102.833,175.667 88.1667,175.667 73.5,175C 66.513,172.193 63.1797,167.027 63.5,159.5C 63.3021,151.885 66.6354,146.551 73.5,143.5 Z"/></g>
<g><path style="opacity:0.935" fill="#000000" d="M 195.5,190.5 C 210.829,190.43 217.329,198.097 215,213.5C 211.813,220.102 206.479,223.435 199,223.5C 191.934,223.142 186.934,219.808 184,213.5C 180.755,201.979 184.588,194.312 195.5,190.5 Z"/></g>
<g><path style="opacity:0.983" fill="#000000" d="M 73.5,191.5 C 101.502,191.333 129.502,191.5 157.5,192C 166.482,196.473 169.649,203.64 167,213.5C 165.167,218 162,221.167 157.5,223C 129.5,223.667 101.5,223.667 73.5,223C 66.513,220.193 63.1797,215.027 63.5,207.5C 63.3021,199.885 66.6354,194.551 73.5,191.5 Z"/></g>
<g><path style="opacity:0.977" fill="#000000" d="M 73.5,239.5 C 93.5028,239.333 113.503,239.5 133.5,240C 142.482,244.473 145.649,251.64 143,261.5C 141.167,266 138,269.167 133.5,271C 113.5,271.667 93.5,271.667 73.5,271C 66.513,268.193 63.1797,263.027 63.5,255.5C 63.3021,247.885 66.6354,242.551 73.5,239.5 Z"/></g>
</svg>
