<?xml version="1.0" encoding="UTF-8"?>
<!DOCTYPE svg PUBLIC "-//W3C//DTD SVG 1.1//EN" "http://www.w3.org/Graphics/SVG/1.1/DTD/svg11.dtd">
<svg xmlns="http://www.w3.org/2000/svg" version="1.1" width="512px" height="512px" style="shape-rendering:geometricPrecision; text-rendering:geometricPrecision; image-rendering:optimizeQuality; fill-rule:evenodd; clip-rule:evenodd" xmlns:xlink="http://www.w3.org/1999/xlink">
<g><path style="opacity:0.964" fill="#434040" d="M 286.5,36.5 C 294.969,36.1347 298.802,40.1347 298,48.5C 292.199,55.3025 286.032,61.8025 279.5,68C 320.07,63.6399 356.736,73.3065 389.5,97C 426.52,128.843 443.853,169.343 441.5,218.5C 441.333,224.5 441.167,230.5 441,236.5C 439.687,242.83 435.854,245.33 429.5,244C 427.061,243.226 425.227,241.726 424,239.5C 423.841,222.141 423.174,204.808 422,187.5C 413.227,139.389 385.727,107.222 339.5,91C 319.79,86.0264 299.79,84.3598 279.5,86C 286.032,92.1975 292.199,98.6975 298,105.5C 298.833,114 295,117.833 286.5,117C 274.029,105.53 261.862,93.6964 250,81.5C 248.112,77.1389 248.778,73.1389 252,69.5C 263.092,57.9039 274.592,46.9039 286.5,36.5 Z"/></g>
<g><path style="opacity:0.987" fill="#f2a541" d="M 235.5,132.5 C 292.548,132.092 334.048,157.092 360,207.5C 379.738,257.672 372.738,303.672 339,345.5C 302.748,382.689 259.248,395.189 208.5,383C 165.59,369.757 136.757,341.924 122,299.5C 107.547,246.129 120.38,200.629 160.5,163C 182.387,145.095 207.387,134.929 235.5,132.5 Z"/></g>
<g><path style="opacity:1" fill="#dcce4f" d="M 232.5,148.5 C 287.176,147.065 325.676,171.065 348,220.5C 363.427,268.625 352.927,310.125 316.5,345C 280.982,372.974 241.982,378.974 199.5,363C 150.438,338.394 128.271,298.56 133,243.5C 142.594,196.904 170.094,166.404 215.5,152C 221.315,150.871 226.981,149.705 232.5,148.5 Z"/></g>
<g><path style="opacity:1" fill="#8b8448" d="M 206.5,210.5 C 233.995,209.502 261.662,209.169 289.5,209.5C 289.819,214.363 289.486,219.03 288.5,223.5C 288.5,219.167 288.5,214.833 288.5,210.5C 261.167,210.5 233.833,210.5 206.5,210.5 Z"/></g>
<g><path style="opacity:1" fill="#454241" d="M 206.5,210.5 C 233.833,210.5 261.167,210.5 288.5,210.5C 288.5,214.833 288.5,219.167 288.5,223.5C 282.833,223.5 277.167,223.5 271.5,223.5C 271.5,227.5 271.5,231.5 271.5,235.5C 277.167,235.5 282.833,235.5 288.5,235.5C 288.5,239.833 288.5,244.167 288.5,248.5C 282.31,248.177 276.31,248.51 270.5,249.5C 268.956,262.877 261.623,271.043 248.5,274C 244.23,275.075 239.897,275.575 235.5,275.5C 233.5,275.5 231.5,275.5 229.5,275.5C 229.182,280.032 229.515,284.366 230.5,288.5C 232.529,300.658 239.529,304.825 251.5,301C 257.466,297.569 260.133,292.402 259.5,285.5C 264.833,285.5 270.167,285.5 275.5,285.5C 275.5,288.167 275.5,290.833 275.5,293.5C 272.596,307.566 263.929,315.066 249.5,316C 233.294,318.318 221.794,312.151 215,297.5C 213.567,286.244 213.067,274.91 213.5,263.5C 224.707,264.101 235.707,262.934 246.5,260C 250.704,257.762 253.037,254.262 253.5,249.5C 238.342,248.504 223.009,248.17 207.5,248.5C 207.5,244.5 207.5,240.5 207.5,236.5C 223.342,236.83 239.009,236.496 254.5,235.5C 254.5,231.5 254.5,227.5 254.5,223.5C 238.5,223.5 222.5,223.5 206.5,223.5C 206.5,219.167 206.5,214.833 206.5,210.5 Z"/></g>
<g><path style="opacity:1" fill="#6c6645" d="M 254.5,235.5 C 239.009,236.496 223.342,236.83 207.5,236.5C 207.5,240.5 207.5,244.5 207.5,248.5C 223.009,248.17 238.342,248.504 253.5,249.5C 237.833,249.5 222.167,249.5 206.5,249.5C 206.5,244.833 206.5,240.167 206.5,235.5C 222.5,235.5 238.5,235.5 254.5,235.5 Z"/></g>
<g><path style="opacity:1" fill="#928948" d="M 288.5,235.5 C 289.486,239.97 289.819,244.637 289.5,249.5C 283.167,249.5 276.833,249.5 270.5,249.5C 276.31,248.51 282.31,248.177 288.5,248.5C 288.5,244.167 288.5,239.833 288.5,235.5 Z"/></g>
<g><path style="opacity:0.968" fill="#434040" d="M 76.5,266.5 C 80.9869,266.161 84.4869,267.827 87,271.5C 87.1592,288.859 87.8259,306.192 89,323.5C 98.3992,373.233 127.233,405.733 175.5,421C 193.96,425.039 212.627,426.373 231.5,425C 224.968,418.802 218.801,412.302 213,405.5C 212.167,397 216,393.167 224.5,394C 236.971,405.47 249.138,417.304 261,429.5C 262.603,433.783 261.936,437.783 259,441.5C 248.104,453.065 236.604,463.899 224.5,474C 214.635,474.468 211.135,469.968 214,460.5C 219.833,454.667 225.667,448.833 231.5,443C 190.928,447.36 154.261,437.693 121.5,414C 89.5833,386.999 72.4166,352.499 70,310.5C 69.3333,298.5 69.3333,286.5 70,274.5C 70.6122,270.403 72.7789,267.736 76.5,266.5 Z"/></g>
<g><path style="opacity:1" fill="#898147" d="M 235.5,275.5 C 234.081,276.451 232.415,276.784 230.5,276.5C 230.5,280.5 230.5,284.5 230.5,288.5C 229.515,284.366 229.182,280.032 229.5,275.5C 231.5,275.5 233.5,275.5 235.5,275.5 Z"/></g>
<g><path style="opacity:1" fill="#8c8448" d="M 259.5,285.5 C 264.975,284.511 270.642,284.178 276.5,284.5C 276.81,287.713 276.477,290.713 275.5,293.5C 275.5,290.833 275.5,288.167 275.5,285.5C 270.167,285.5 264.833,285.5 259.5,285.5 Z"/></g>
</svg>
