<?xml version="1.0" encoding="UTF-8"?>
<!DOCTYPE svg PUBLIC "-//W3C//DTD SVG 1.1//EN" "http://www.w3.org/Graphics/SVG/1.1/DTD/svg11.dtd">
<svg xmlns="http://www.w3.org/2000/svg" version="1.1" width="512px" height="512px" style="shape-rendering:geometricPrecision; text-rendering:geometricPrecision; image-rendering:optimizeQuality; fill-rule:evenodd; clip-rule:evenodd" xmlns:xlink="http://www.w3.org/1999/xlink">
<g><path style="opacity:0.981" fill="#000000" d="M 232.5,27.5 C 245.458,29.7238 250.791,37.3905 248.5,50.5C 340.565,37.6309 412.732,69.2976 465,145.5C 499.029,203.792 505.029,264.792 483,328.5C 452.068,403.56 396.568,448.06 316.5,462C 238.532,470.361 174.366,444.861 124,385.5C 120.833,381 117.667,376.5 114.5,372C 97.5,371.667 80.5,371.333 63.5,371C 38.1157,365.283 22.2824,349.783 16,324.5C 15.3333,275.833 15.3333,227.167 16,178.5C 22.5341,149.967 40.3675,134.134 69.5,131C 144.19,130.025 218.857,130.358 293.5,132C 319.997,139.163 335.164,156.33 339,183.5C 339.667,228.833 339.667,274.167 339,319.5C 334.859,347.975 318.693,365.141 290.5,371C 245.833,371.333 201.167,371.667 156.5,372C 206.342,424.13 266.342,441.464 336.5,424C 405.762,400.739 447.262,353.239 461,281.5C 468.744,203.156 439.244,143.323 372.5,102C 337.692,82.9765 300.692,76.4765 261.5,82.5C 267.553,91.8543 266.553,100.354 258.5,108C 252.167,111.333 245.833,111.333 239.5,108C 227.5,102 215.5,96 203.5,90C 198.789,85.8604 197.289,80.6938 199,74.5C 205.667,61.1667 212.333,47.8333 219,34.5C 222.712,30.3957 227.212,28.0624 232.5,27.5 Z M 70.5,163.5 C 141.501,163.333 212.501,163.5 283.5,164C 295.879,166.046 303.379,173.212 306,185.5C 306.499,191.157 306.666,196.824 306.5,202.5C 220.167,202.5 133.833,202.5 47.5,202.5C 46.8189,193.094 48.3189,184.094 52,175.5C 56.6679,169.089 62.8346,165.089 70.5,163.5 Z M 193.5,273.5 C 216.836,273.333 240.169,273.5 263.5,274C 270.344,276.672 274.344,281.672 275.5,289C 274.418,296.836 270.085,301.836 262.5,304C 239.5,304.667 216.5,304.667 193.5,304C 182.314,299.446 179.147,291.613 184,280.5C 186.529,277.115 189.696,274.782 193.5,273.5 Z"/></g>
</svg>
