<?xml version="1.0" encoding="UTF-8"?>
<!DOCTYPE svg PUBLIC "-//W3C//DTD SVG 1.1//EN" "http://www.w3.org/Graphics/SVG/1.1/DTD/svg11.dtd">
<svg xmlns="http://www.w3.org/2000/svg" version="1.1" width="512px" height="512px" style="shape-rendering:geometricPrecision; text-rendering:geometricPrecision; image-rendering:optimizeQuality; fill-rule:evenodd; clip-rule:evenodd" xmlns:xlink="http://www.w3.org/1999/xlink">
<g><path style="opacity:0.944" fill="#000000" d="M 233.5,-0.5 C 248.167,-0.5 262.833,-0.5 277.5,-0.5C 355.016,8.8246 414.849,46.1579 457,111.5C 491.563,171.339 499.897,234.673 482,301.5C 462.542,361.626 424.042,404.793 366.5,431C 354.519,430.446 351.019,424.613 356,413.5C 383.496,399.751 407.496,381.418 428,358.5C 447.654,334.858 459.987,307.858 465,277.5C 431.993,314.604 391.826,341.104 344.5,357C 287.589,376.512 229.255,384.512 169.5,381C 167.513,379.681 166.346,377.848 166,375.5C 165.667,365.5 165.333,355.5 165,345.5C 132.923,369.788 100.756,393.955 68.5,418C 100.667,442.167 132.833,466.333 165,490.5C 165.333,480.833 165.667,471.167 166,461.5C 166.786,458.417 168.619,456.251 171.5,455C 207.724,452.493 243.557,447.326 279,439.5C 288.585,441.67 291.585,447.337 288,456.5C 286.786,458.049 285.286,459.215 283.5,460C 251.556,467.397 219.222,472.23 186.5,474.5C 186.87,482.903 186.37,491.236 185,499.5C 182.15,505.486 177.65,509.486 171.5,511.5C 167.167,511.5 162.833,511.5 158.5,511.5C 124.735,486.916 91.068,462.082 57.5,437C 46.8858,428.259 44.7192,417.759 51,405.5C 58.7131,398.947 66.5464,392.614 74.5,386.5C 19.0975,315.086 5.9308,236.419 35,150.5C 72.4862,62.5193 138.653,12.186 233.5,-0.5 Z M 235.5,20.5 C 314.202,16.1154 378.036,44.4488 427,105.5C 454.093,142.274 468.593,183.607 470.5,229.5C 461.879,246.412 451.046,261.746 438,275.5C 450.365,211.952 435.698,155.619 394,106.5C 340.56,52.1769 276.726,34.3436 202.5,53C 138.572,73.9281 96.4051,116.428 76,180.5C 59.4698,245.864 72.6364,304.364 115.5,356C 107.833,361.833 100.167,367.667 92.5,373.5C 53.5151,327.033 36.6818,273.367 42,212.5C 54.3979,127.118 100.231,67.6178 179.5,34C 197.797,27.3793 216.464,22.8793 235.5,20.5 Z M 243.5,66.5 C 311.436,64.7235 363.27,92.3902 399,149.5C 426.051,199.571 428.051,250.571 405,302.5C 377.502,321.123 347.669,334.956 315.5,344C 273.574,355.407 230.907,361.574 187.5,362.5C 186.669,355.189 186.169,347.856 186,340.5C 180.925,327.046 171.425,322.212 157.5,326C 148.893,331.22 140.726,337.053 133,343.5C 90.1378,292.676 79.4712,235.676 101,172.5C 121.95,122.769 158.117,89.6028 209.5,73C 220.84,70.0973 232.174,67.9307 243.5,66.5 Z"/></g>
<g><path style="opacity:0.942" fill="#000000" d="M 250.5,128.5 C 255.609,127.923 259.776,129.59 263,133.5C 264.339,138.736 264.839,144.07 264.5,149.5C 277.507,150.78 289.507,154.947 300.5,162C 306.259,168.769 305.592,174.769 298.5,180C 295.5,180.667 292.5,180.667 289.5,180C 275.934,171.272 261.267,168.272 245.5,171C 231.204,177.688 227.37,188.188 234,202.5C 235.771,203.304 237.271,204.471 238.5,206C 253.798,213.768 269.465,220.768 285.5,227C 303.48,241.737 308.647,260.237 301,282.5C 294.238,298.929 282.238,309.263 265,313.5C 264.852,319.249 264.186,324.915 263,330.5C 257.97,336.313 252.303,336.98 246,332.5C 245.333,331.167 244.667,329.833 244,328.5C 243.828,323.798 243.328,319.132 242.5,314.5C 228.403,313.364 216.236,308.03 206,298.5C 204.22,286.946 209.054,282.113 220.5,284C 234.332,293.405 249.332,295.739 265.5,291C 281.474,281.891 286.307,268.724 280,251.5C 277.131,248.296 273.965,245.463 270.5,243C 254.88,237.689 239.88,231.023 225.5,223C 212.523,213.419 207.356,200.586 210,184.5C 213.406,165.928 224.239,154.261 242.5,149.5C 243.328,144.868 243.828,140.202 244,135.5C 245.018,131.985 247.185,129.652 250.5,128.5 Z"/></g>
<g><path style="opacity:0.888" fill="#000000" d="M 318.5,427.5 C 329.486,426.653 333.986,431.653 332,442.5C 327.66,448.864 322.16,450.031 315.5,446C 309.702,438.7 310.702,432.533 318.5,427.5 Z"/></g>
</svg>
