<?xml version="1.0" encoding="UTF-8"?>
<!DOCTYPE svg PUBLIC "-//W3C//DTD SVG 1.1//EN" "http://www.w3.org/Graphics/SVG/1.1/DTD/svg11.dtd">
<svg xmlns="http://www.w3.org/2000/svg" version="1.1" width="512px" height="512px" style="shape-rendering:geometricPrecision; text-rendering:geometricPrecision; image-rendering:optimizeQuality; fill-rule:evenodd; clip-rule:evenodd" xmlns:xlink="http://www.w3.org/1999/xlink">
<g><path style="opacity:0.967" fill="#000000" d="M 233.5,-0.5 C 248.5,-0.5 263.5,-0.5 278.5,-0.5C 376.441,11.636 446.941,61.9693 490,150.5C 501.263,176.892 508.43,204.225 511.5,232.5C 511.5,247.833 511.5,263.167 511.5,278.5C 502.405,359.225 464.738,422.725 398.5,469C 361.287,493.237 320.621,507.403 276.5,511.5C 262.5,511.5 248.5,511.5 234.5,511.5C 150.684,502.028 85.5174,462.361 39,392.5C 14.8114,352.775 1.64478,309.775 -0.5,263.5C -0.5,260.167 -0.5,256.833 -0.5,253.5C 3.59231,239.617 12.5923,235.117 26.5,240C 31.5133,243.523 34.3466,248.356 35,254.5C 37.4868,334.663 71.6535,397.163 137.5,442C 212.862,486.065 289.195,487.731 366.5,447C 437.243,402.887 474.243,338.887 477.5,255C 474.343,170.638 437.009,106.638 365.5,63C 304.605,30.2324 241.605,25.5658 176.5,49C 124.127,70.3767 84.7939,106.043 58.5,156C 71.5,156.333 84.5,156.667 97.5,157C 108.418,160.616 112.585,168.116 110,179.5C 108.567,184.598 105.4,188.098 100.5,190C 70.8947,191.643 41.2281,191.976 11.5,191C 6.04369,189.037 2.04369,185.537 -0.5,180.5C -0.5,149.167 -0.5,117.833 -0.5,86.5C 7.45691,73.6381 17.6236,71.6381 30,80.5C 32.1101,83.4917 33.4434,86.825 34,90.5C 34.3333,102.167 34.6667,113.833 35,125.5C 80.6951,51.7057 146.862,9.70567 233.5,-0.5 Z M 273.5,275.5 C 286.861,278.58 297.028,285.913 304,297.5C 307.981,309.746 304.814,319.913 294.5,328C 288.241,332.796 281.241,335.963 273.5,337.5C 273.5,316.833 273.5,296.167 273.5,275.5 Z"/></g>
<g><path style="opacity:0.964" fill="#000000" d="M 250.5,101.5 C 262.899,100.105 270.399,105.438 273,117.5C 273.5,124.158 273.666,130.825 273.5,137.5C 302.541,141.586 323.707,156.586 337,182.5C 341.554,192.667 342.221,203 339,213.5C 332.915,221.467 325.082,223.633 315.5,220C 312.333,218.167 309.833,215.667 308,212.5C 306.239,190.905 294.739,177.905 273.5,173.5C 273.5,195.5 273.5,217.5 273.5,239.5C 298.618,243.472 318.451,255.806 333,276.5C 347.266,305.304 342.766,330.804 319.5,353C 306.154,364.176 290.82,371.009 273.5,373.5C 273.83,381.893 273.33,390.227 272,398.5C 266.677,408.723 258.51,411.889 247.5,408C 241.703,404.909 238.536,400.076 238,393.5C 237.5,386.842 237.334,380.175 237.5,373.5C 208.459,369.414 187.293,354.414 174,328.5C 169.821,319.111 168.821,309.444 171,299.5C 176.629,289.784 184.795,286.95 195.5,291C 198.667,292.833 201.167,295.333 203,298.5C 204.761,320.095 216.261,333.095 237.5,337.5C 237.5,315.5 237.5,293.5 237.5,271.5C 212.382,267.528 192.549,255.194 178,234.5C 163.663,205.688 168.163,180.188 191.5,158C 204.846,146.824 220.18,139.991 237.5,137.5C 237.17,129.107 237.67,120.773 239,112.5C 241.437,107.226 245.271,103.56 250.5,101.5 Z M 234.5,173.5 C 235.5,173.5 236.5,173.5 237.5,173.5C 237.833,194.177 237.5,214.844 236.5,235.5C 222.59,232.073 212.423,224.073 206,211.5C 203.863,196.941 209.363,186.108 222.5,179C 226.475,176.854 230.475,175.02 234.5,173.5 Z M 273.5,275.5 C 273.5,296.167 273.5,316.833 273.5,337.5C 281.241,335.963 288.241,332.796 294.5,328C 304.814,319.913 307.981,309.746 304,297.5C 297.028,285.913 286.861,278.58 273.5,275.5 Z"/></g>
</svg>
