<?xml version="1.0" encoding="UTF-8"?>
<!DOCTYPE svg PUBLIC "-//W3C//DTD SVG 1.1//EN" "http://www.w3.org/Graphics/SVG/1.1/DTD/svg11.dtd">
<svg xmlns="http://www.w3.org/2000/svg" version="1.1" width="512px" height="512px" style="shape-rendering:geometricPrecision; text-rendering:geometricPrecision; image-rendering:optimizeQuality; fill-rule:evenodd; clip-rule:evenodd" xmlns:xlink="http://www.w3.org/1999/xlink">
<g><path style="opacity:0.982" fill="#000000" d="M 134.5,27.5 C 199.168,27.3333 263.834,27.5 328.5,28C 347.557,34.2789 356.557,47.4455 355.5,67.5C 373.17,67.3334 390.836,67.5001 408.5,68C 422,72.1667 430.833,81 435,94.5C 435.167,158.169 435.667,221.836 436.5,285.5C 475.554,314.646 490.387,353.313 481,401.5C 467.572,447.261 437.406,474.428 390.5,483C 347.051,487.197 312.218,472.031 286,437.5C 265.12,403.901 261.787,368.567 276,331.5C 287.638,306.695 305.805,288.362 330.5,276.5C 331.667,205.502 331.833,134.502 331,63.5C 329.833,57 326,53.1667 319.5,52C 260.833,51.3333 202.167,51.3333 143.5,52C 137,53.1667 133.167,57 132,63.5C 131.833,119.5 131.667,175.5 131.5,231.5C 131.341,288.877 131.841,346.211 133,403.5C 135.111,407.944 138.611,410.444 143.5,411C 177.167,411.333 210.833,411.667 244.5,412C 251.549,416.487 253.383,422.654 250,430.5C 248.457,432.378 246.624,433.878 244.5,435C 207.833,435.667 171.167,435.667 134.5,435C 115.443,428.721 106.443,415.554 107.5,395.5C 89.8302,395.667 72.1635,395.5 54.5,395C 41,390.833 32.1667,382 28,368.5C 27.3333,277.167 27.3333,185.833 28,94.5C 32.1667,81 41,72.1667 54.5,68C 72.1635,67.5001 89.8302,67.3334 107.5,67.5C 106.561,47.3597 115.561,34.0264 134.5,27.5 Z M 63.5,91.5 C 78.1667,91.5 92.8333,91.5 107.5,91.5C 107.5,184.833 107.5,278.167 107.5,371.5C 92.8295,371.667 78.1629,371.5 63.5,371C 57,369.833 53.1667,366 52,359.5C 51.3333,274.167 51.3333,188.833 52,103.5C 53.348,96.9875 57.1813,92.9875 63.5,91.5 Z M 355.5,91.5 C 370.17,91.3334 384.837,91.5001 399.5,92C 404.389,92.5561 407.889,95.0561 410,99.5C 411.484,157.121 411.984,214.788 411.5,272.5C 393.127,267.531 374.46,266.197 355.5,268.5C 355.5,209.5 355.5,150.5 355.5,91.5 Z M 230.5,113.5 C 237.275,119.102 243.942,124.935 250.5,131C 253.833,131.667 257.167,131.667 260.5,131C 265.422,127.622 270.255,124.122 275,120.5C 275.5,134.829 275.667,149.163 275.5,163.5C 246.167,163.5 216.833,163.5 187.5,163.5C 187.333,149.163 187.5,134.829 188,120.5C 192.745,124.122 197.578,127.622 202.5,131C 205.833,131.667 209.167,131.667 212.5,131C 219.004,125.663 225.004,119.829 230.5,113.5 Z M 374.5,291.5 C 419.651,294.819 447.484,318.486 458,362.5C 461.667,404.678 444.501,434.845 406.5,453C 369.388,465.597 337.555,457.43 311,428.5C 291.318,402.947 286.984,374.947 298,344.5C 313.306,312.014 338.806,294.347 374.5,291.5 Z"/></g>
<g><path style="opacity:0.984" fill="#000000" d="M 170.5,83.5 C 174.637,83.1463 178.637,83.6463 182.5,85C 190.36,91.0267 198.36,96.86 206.5,102.5C 213.016,96.1495 219.683,89.9828 226.5,84C 230.625,83.1462 234.625,83.4796 238.5,85C 244.348,91.0149 250.348,96.8482 256.5,102.5C 265.028,96.1392 273.694,89.9725 282.5,84C 289.845,81.7632 295.345,83.9298 299,90.5C 299.984,121.253 299.651,151.919 298,182.5C 296.457,184.378 294.624,185.878 292.5,187C 251.083,187.988 209.749,187.655 168.5,186C 166.622,184.457 165.122,182.624 164,180.5C 163.333,150.5 163.333,120.5 164,90.5C 165.694,87.6424 167.861,85.309 170.5,83.5 Z M 230.5,113.5 C 225.004,119.829 219.004,125.663 212.5,131C 209.167,131.667 205.833,131.667 202.5,131C 197.578,127.622 192.745,124.122 188,120.5C 187.5,134.829 187.333,149.163 187.5,163.5C 216.833,163.5 246.167,163.5 275.5,163.5C 275.667,149.163 275.5,134.829 275,120.5C 270.255,124.122 265.422,127.622 260.5,131C 257.167,131.667 253.833,131.667 250.5,131C 243.942,124.935 237.275,119.102 230.5,113.5 Z"/></g>
<g><path style="opacity:0.956" fill="#000000" d="M 226.5,243.5 C 240.017,242.522 245.85,248.856 244,262.5C 253.297,266.629 259.131,273.629 261.5,283.5C 259.549,293.611 253.549,297.445 243.5,295C 239.833,292.667 236.833,289.667 234.5,286C 227.187,284.537 223.687,287.37 224,294.5C 225.579,296.041 227.413,297.208 229.5,298C 238.653,299.414 246.986,302.747 254.5,308C 263.893,316.521 267.06,327.021 264,339.5C 260.452,349.216 253.952,356.216 244.5,360.5C 243.886,365.242 243.053,369.909 242,374.5C 237.86,379.211 232.694,380.711 226.5,379C 224.376,377.878 222.543,376.378 221,374.5C 219.785,369.949 219.119,365.282 219,360.5C 209.703,356.371 203.869,349.371 201.5,339.5C 203.451,329.389 209.451,325.555 219.5,328C 223.167,330.333 226.167,333.333 228.5,337C 235.813,338.463 239.313,335.63 239,328.5C 237.421,326.959 235.587,325.792 233.5,325C 224.347,323.586 216.014,320.253 208.5,315C 199.107,306.479 195.94,295.979 199,283.5C 202.548,273.784 209.048,266.784 218.5,262.5C 219.327,258.541 219.827,254.541 220,250.5C 221.694,247.642 223.861,245.309 226.5,243.5 Z"/></g>
<g><path style="opacity:0.965" fill="#000000" d="M 420.5,331.5 C 434.712,330.54 439.878,336.874 436,350.5C 413.139,373.695 389.972,396.528 366.5,419C 362.375,419.854 358.375,419.52 354.5,418C 340.637,404.471 327.137,390.638 314,376.5C 312.167,363.667 317.667,358.167 330.5,360C 340.985,369.651 351.318,379.484 361.5,389.5C 381.214,370.118 400.881,350.785 420.5,331.5 Z"/></g>
</svg>
