<?xml version="1.0" encoding="UTF-8"?>
<!DOCTYPE svg PUBLIC "-//W3C//DTD SVG 1.1//EN" "http://www.w3.org/Graphics/SVG/1.1/DTD/svg11.dtd">
<svg xmlns="http://www.w3.org/2000/svg" version="1.1" width="512px" height="512px" style="shape-rendering:geometricPrecision; text-rendering:geometricPrecision; image-rendering:optimizeQuality; fill-rule:evenodd; clip-rule:evenodd" xmlns:xlink="http://www.w3.org/1999/xlink">
<g><path style="opacity:0.964" fill="#000000" d="M 106.5,31.5 C 191.834,31.3333 277.167,31.5 362.5,32C 385.829,37.4957 399.829,51.9957 404.5,75.5C 403.737,82.4301 399.904,86.0968 393,86.5C 389.513,86.2561 386.513,84.9228 384,82.5C 380.699,67.651 371.866,58.151 357.5,54C 275.167,53.3333 192.833,53.3333 110.5,54C 97.6667,57.5 89.5,65.6667 86,78.5C 85.3333,196.5 85.3333,314.5 86,432.5C 89.5,445.333 97.6667,453.5 110.5,457C 194.21,457.989 277.877,457.656 361.5,456C 371.85,451.652 378.683,444.152 382,433.5C 383.28,397.526 383.947,361.526 384,325.5C 386.071,321.047 389.571,319.047 394.5,319.5C 399.831,319.654 403.331,322.321 405,327.5C 405.667,362.5 405.667,397.5 405,432.5C 400.479,457.354 385.979,472.854 361.5,479C 276.5,479.667 191.5,479.667 106.5,479C 83.6311,473.464 69.4644,459.298 64,436.5C 63.3333,315.833 63.3333,195.167 64,74.5C 69.6815,51.6524 83.8481,37.3191 106.5,31.5 Z"/></g>
<g><path style="opacity:0.946" fill="#000000" d="M 420.5,102.5 C 437.377,102.02 451.544,108.02 463,120.5C 469.731,130.477 471.065,141.144 467,152.5C 424.4,227.425 381.4,302.092 338,376.5C 334.833,381 331,384.833 326.5,388C 315.966,395.434 304.966,402.1 293.5,408C 280.317,410.161 271.483,404.995 267,392.5C 266.515,376.74 267.515,361.073 270,345.5C 271,342.833 272,340.167 273,337.5C 315.667,263.5 358.333,189.5 401,115.5C 406.183,109.005 412.683,104.672 420.5,102.5 Z M 425.5,124.5 C 431.383,125.273 436.716,127.44 441.5,131C 446.081,134.438 447.581,138.938 446,144.5C 442.403,150.706 438.569,156.706 434.5,162.5C 425.668,157.585 417.001,152.418 408.5,147C 412.377,141.415 415.877,135.582 419,129.5C 420.805,127.174 422.972,125.508 425.5,124.5 Z M 396.5,167.5 C 405.098,171.467 413.432,175.967 421.5,181C 422.357,181.689 423.023,182.522 423.5,183.5C 389.414,242.003 355.581,300.67 322,359.5C 318.869,363.633 315.369,367.466 311.5,371C 303.915,375.709 296.415,380.542 289,385.5C 289.14,373.802 290.14,362.135 292,350.5C 326.857,289.445 361.69,228.445 396.5,167.5 Z"/></g>
<g><path style="opacity:0.963" fill="#000000" d="M 166.5,116.5 C 225.834,116.333 285.168,116.5 344.5,117C 349.704,118.572 352.037,122.072 351.5,127.5C 352.037,132.928 349.704,136.428 344.5,138C 285.167,138.667 225.833,138.667 166.5,138C 161.296,136.428 158.963,132.928 159.5,127.5C 159.083,121.986 161.416,118.32 166.5,116.5 Z"/></g>
<g><path style="opacity:0.964" fill="#000000" d="M 134.5,180.5 C 197.834,180.333 261.168,180.5 324.5,181C 331.968,185.033 333.801,190.867 330,198.5C 328.421,200.041 326.587,201.208 324.5,202C 261.167,202.667 197.833,202.667 134.5,202C 129.296,200.428 126.963,196.928 127.5,191.5C 127.083,185.986 129.416,182.32 134.5,180.5 Z"/></g>
<g><path style="opacity:0.962" fill="#000000" d="M 134.5,244.5 C 185.501,244.333 236.501,244.5 287.5,245C 292.434,246.673 295.1,250.173 295.5,255.5C 295.1,260.827 292.434,264.327 287.5,266C 236.5,266.667 185.5,266.667 134.5,266C 129.296,264.428 126.963,260.928 127.5,255.5C 127.083,249.986 129.416,246.32 134.5,244.5 Z"/></g>
<g><path style="opacity:0.959" fill="#000000" d="M 134.5,308.5 C 173.501,308.333 212.501,308.5 251.5,309C 260.833,316 260.833,323 251.5,330C 212.5,330.667 173.5,330.667 134.5,330C 129.296,328.428 126.963,324.928 127.5,319.5C 127.083,313.986 129.416,310.32 134.5,308.5 Z"/></g>
<g><path style="opacity:0.959" fill="#000000" d="M 134.5,372.5 C 169.168,372.333 203.835,372.5 238.5,373C 243.434,374.673 246.1,378.173 246.5,383.5C 246.1,388.827 243.434,392.327 238.5,394C 203.833,394.667 169.167,394.667 134.5,394C 129.296,392.428 126.963,388.928 127.5,383.5C 127.083,377.986 129.416,374.32 134.5,372.5 Z"/></g>
</svg>
